<svg width="30" height="27" viewBox="0 0 30 27" fill="none" xmlns="http://www.w3.org/2000/svg">
<path fill-rule="evenodd" clip-rule="evenodd" d="M8.67756 3.14012C9.04093 1.35729 10.6278 0.0957031 12.4446 0.0957031H16.8922C18.709 0.0957031 20.2945 1.35729 20.6593 3.14012C20.6995 3.33644 20.8045 3.51352 20.9576 3.64287C21.1106 3.77223 21.3028 3.84633 21.503 3.85325H21.5479C23.4573 3.93763 24.9244 4.17171 26.1493 4.97602C26.9209 5.48229 27.5851 6.13282 28.1022 6.89358C28.7459 7.83808 29.029 8.9241 29.1651 10.236C29.2985 11.5194 29.2985 13.1267 29.2985 15.1626V15.2783C29.2985 17.3143 29.2985 18.9229 29.1651 20.2049C29.029 21.5169 28.7459 22.6029 28.1022 23.5487C27.5834 24.3099 26.9198 24.9615 26.1493 25.4663C25.1925 26.0937 24.0943 26.3713 22.7633 26.5033C21.4595 26.634 19.825 26.634 17.7482 26.634H11.5886C9.51182 26.634 7.87733 26.634 6.57355 26.5033C5.24255 26.3713 4.14428 26.095 3.18754 25.4663C2.41685 24.9611 1.75323 24.3091 1.23459 23.5474C0.590871 22.6029 0.307796 21.5169 0.171702 20.2049C0.0383301 18.9229 0.0383301 17.3143 0.0383301 15.2783V15.1626C0.0383301 13.1267 0.0383301 11.5194 0.171702 10.236C0.307796 8.9241 0.590871 7.83808 1.23459 6.89358C1.75323 6.13189 2.41685 5.47984 3.18754 4.97466C4.41238 4.17171 5.87947 3.93763 7.78887 3.85461L7.812 3.85325H7.83378C8.03405 3.84633 8.22617 3.77223 8.37922 3.64287C8.53228 3.51352 8.63736 3.33644 8.67756 3.14012ZM12.4446 2.13711C11.5736 2.13711 10.8428 2.74 10.6781 3.54704C10.4128 4.85354 9.25324 5.88241 7.85828 5.89466C6.02373 5.97631 5.04114 6.20087 4.30623 6.68264C3.76033 7.04087 3.29008 7.5028 2.92216 8.04222C2.54654 8.5934 2.32062 9.29972 2.20086 10.447C2.0811 11.612 2.07974 13.1144 2.07974 15.2212C2.07974 17.3279 2.07974 18.829 2.20222 19.994C2.32062 21.1412 2.54654 21.8476 2.92352 22.4001C3.28825 22.9363 3.75777 23.399 4.30759 23.7597C4.8751 24.1312 5.60184 24.3558 6.77633 24.4728C7.96579 24.5912 9.49821 24.5926 11.6444 24.5926H17.6924C19.8372 24.5926 21.3697 24.5926 22.5605 24.4728C23.735 24.3558 24.4617 24.1326 25.0292 23.7597C25.579 23.399 26.0499 22.9363 26.4147 22.3987C26.7903 21.8476 27.0162 21.1412 27.136 19.994C27.2557 18.829 27.2571 17.3265 27.2571 15.2212C27.2571 13.1144 27.2571 11.612 27.1346 10.447C27.0162 9.29972 26.7903 8.5934 26.4133 8.04222C26.0458 7.50208 25.5755 7.03963 25.0292 6.68128C24.297 6.20087 23.3144 5.97631 21.4772 5.89466C20.0836 5.88105 18.9241 4.8549 18.6587 3.54704C18.5716 3.14457 18.3482 2.78449 18.0264 2.52762C17.7046 2.27074 17.3039 2.13281 16.8922 2.13711H12.4446ZM14.6684 11.6637C13.8563 11.6637 13.0774 11.9863 12.5032 12.5605C11.9289 13.1348 11.6063 13.9137 11.6063 14.7258C11.6063 15.5379 11.9289 16.3168 12.5032 16.891C13.0774 17.4653 13.8563 17.7879 14.6684 17.7879C15.4805 17.7879 16.2594 17.4653 16.8336 16.891C17.4079 16.3168 17.7305 15.5379 17.7305 14.7258C17.7305 13.9137 17.4079 13.1348 16.8336 12.5605C16.2594 11.9863 15.4805 11.6637 14.6684 11.6637ZM9.56489 14.7258C9.56489 13.3722 10.1026 12.0741 11.0597 11.117C12.0168 10.16 13.3149 9.62226 14.6684 9.62226C16.0219 9.62226 17.32 10.16 18.2771 11.117C19.2342 12.0741 19.7719 13.3722 19.7719 14.7258C19.7719 16.0793 19.2342 17.3774 18.2771 18.3345C17.32 19.2916 16.0219 19.8293 14.6684 19.8293C13.3149 19.8293 12.0168 19.2916 11.0597 18.3345C10.1026 17.3774 9.56489 16.0793 9.56489 14.7258ZM21.8133 10.643C21.8133 10.3723 21.9209 10.1126 22.1123 9.92122C22.3037 9.7298 22.5633 9.62226 22.834 9.62226H24.195C24.4657 9.62226 24.7253 9.7298 24.9167 9.92122C25.1081 10.1126 25.2157 10.3723 25.2157 10.643C25.2157 10.9137 25.1081 11.1733 24.9167 11.3647C24.7253 11.5561 24.4657 11.6637 24.195 11.6637H22.834C22.5633 11.6637 22.3037 11.5561 22.1123 11.3647C21.9209 11.1733 21.8133 10.9137 21.8133 10.643Z" fill="#7F7F7F"/>
</svg>
