<svg width="24" height="25" viewBox="0 0 24 25" fill="none" xmlns="http://www.w3.org/2000/svg">
<path d="M1.22491 20.5492C1.22491 19.1054 1.79845 17.7208 2.81935 16.6999C3.84025 15.679 5.22489 15.1055 6.66866 15.1055H17.5562C18.9999 15.1055 20.3846 15.679 21.4055 16.6999C22.4264 17.7208 22.9999 19.1054 22.9999 20.5492C22.9999 21.2711 22.7131 21.9634 22.2027 22.4739C21.6922 22.9843 20.9999 23.2711 20.278 23.2711H3.94679C3.2249 23.2711 2.53258 22.9843 2.02213 22.4739C1.51168 21.9634 1.22491 21.2711 1.22491 20.5492Z" stroke="#7F7F7F" stroke-width="2" stroke-linejoin="round"/>
<path d="M12.1122 9.66147C14.3671 9.66147 16.195 7.83354 16.195 5.57866C16.195 3.32379 14.3671 1.49585 12.1122 1.49585C9.85736 1.49585 8.02942 3.32379 8.02942 5.57866C8.02942 7.83354 9.85736 9.66147 12.1122 9.66147Z" stroke="#7F7F7F" stroke-width="2"/>
</svg>
