<svg xmlns="http://www.w3.org/2000/svg" width="29" height="29" viewBox="0 0 29 29" fill="none">
<path d="M28.0017 12.6637V14.7051C28.0017 21.1205 28.0017 24.3283 26.0079 26.3207C24.0169 28.3145 20.8078 28.3145 14.3923 28.3145C7.97684 28.3145 4.76911 28.3145 2.77534 26.3207C0.782928 24.3296 0.782928 21.1205 0.782928 14.7051C0.782928 8.28962 0.782928 5.08189 2.77534 3.08812C4.77047 1.0957 7.97684 1.0957 14.3923 1.0957H16.4337" stroke="#829DFF" stroke-width="1.38821" stroke-linecap="round"/>
<path d="M7.58768 17.4262L10.0333 14.492C11.0023 13.3284 11.4868 12.7473 12.1237 12.7473C12.762 12.7473 13.2465 13.3284 14.2154 14.492L14.5693 14.9166C15.5383 16.0802 16.0228 16.6613 16.661 16.6613C17.298 16.6613 17.7825 16.0802 18.7514 14.9166L21.1971 11.9824" stroke="#829DFF" stroke-width="1.38821" stroke-linecap="round"/>
<path d="M23.919 9.26108C26.1738 9.26108 28.0018 7.43315 28.0018 5.17827C28.0018 2.9234 26.1738 1.09546 23.919 1.09546C21.6641 1.09546 19.8362 2.9234 19.8362 5.17827C19.8362 7.43315 21.6641 9.26108 23.919 9.26108Z" stroke="#829DFF" stroke-width="1.38821"/>
</svg>
